<svg xmlns="http://www.w3.org/2000/svg" width="511.443" height="396.2" id="escalator">
    <path fill="#1a5fb4" d="M216.402 67.777c18.715 0 33.887-15.174 33.887-33.888C250.289 15.172 235.117 0 216.402 0c-18.716 0-33.888 15.172-33.888 33.889 0 18.714 15.172 33.888 33.888 33.888zm0-33.888"></path>
    <path fill="#1a5fb4" d="M249.95 128.779v-21.353c0-45.5-67.095-45-67.095 0v87.109h.132l-63.393 63.391c-5.979 5.979-6.708 6.239-18.45 6.239-.01.01-38.758 0-38.758 0-39 0-62.386 35.048-62.386 64.761C0 358.639 23.386 396.2 65.845 396.2h69.041c16.295 0 36.048-6.229 52.343-21.565l202.137-201.526c4.314-3.834 6.71-5.031 14.139-5.031h49.913c24.025 0 58.025-27.228 58.025-66.478 0-38.849-34.25-64.75-60-64.836h-78.807c-16.294 0-37.25 6.662-49.75 19.162l-72.938 72.853h.002z"></path>
    <path fill="#fff"
          d="M377.429 70.311h70.905c17.253 0 28.859 19.287 28.859 30.789 0 11.502-8.234 32.969-29.321 32.969h-42.629c-18.05 0-26.05 2.531-36.441 12.922l-203.68 203.68c-8.236 8.255-18.69 11.522-32.109 11.522H65.845c-17.253 0-32.459-14.597-32.459-33.767s14.5-29.911 29.5-29.911h46.081c13.419 0 22.251-3.834 29.919-11.502L346.004 79.896c8.522-8.52 16.941-9.585 31.425-9.585z"></path>
</svg>